<svg xmlns="http://www.w3.org/2000/svg" width="1200" height="460" viewBox="0 0 1200 460" role="img" aria-labelledby="title desc">
  <title id="title">Charter — AI-agent readiness, scored</title><desc id="desc">Featured open-source project. Charter grades repositories from zero to one hundred on how safely an AI coding agent can work in them, then provides fixes for every gap.</desc>
  <style>.display{font-family:"Arial Narrow","Roboto Condensed","Helvetica Neue",Arial,sans-serif;font-weight:800;letter-spacing:-2px}.sans{font-family:Inter,-apple-system,BlinkMacSystemFont,"Segoe UI",sans-serif}.mono{font-family:"SFMono-Regular",Consolas,"Liberation Mono",monospace}</style>
  <rect width="1200" height="460" fill="#0D0A0C"/><rect x=".5" y=".5" width="1199" height="459" fill="none" stroke="#302B32"/>
  <circle cx="38" cy="28" r="3.5" fill="#58A6FF"/>
  <text x="52" y="32" class="mono" font-size="10" font-weight="700" letter-spacing="1.5" fill="#6F6A72">FEATURED OPEN SOURCE / 01</text>
  <text x="1148" y="32" text-anchor="end" class="mono" font-size="10" font-weight="700" letter-spacing="1.3" fill="#6F6A72">READINESS MODEL · 0 — 100</text>
  <line x1="0" y1="56" x2="1200" y2="56" stroke="#302B32"/>
  <text x="54" y="142" class="display" font-size="78" fill="#F2F2EF">CHARTER</text>
  <text x="54" y="191" class="sans" font-size="24" font-weight="700" fill="#F2F2EF">AI-agent readiness, scored.</text>
  <text x="54" y="236" class="sans" font-size="17" fill="#A29EA3">Grades any repository 0–100 on how safely an AI coding agent</text><text x="54" y="263" class="sans" font-size="17" fill="#A29EA3">can work in it — then gives you the exact fix for every gap.</text>
  <g class="mono" font-size="11" font-weight="700" letter-spacing="1.2" fill="#6F6A72"><text x="54" y="322">OFFLINE</text><text x="174" y="322">DETERMINISTIC</text><text x="354" y="322">NO LLM IN THE LOOP</text></g>
  <line x1="54" y1="350" x2="620" y2="350" stroke="#302B32"/>
  <text x="54" y="389" class="mono" font-size="12" fill="#A29EA3">GO · CLI · GITHUB ACTION · SARIF · APACHE-2.0</text>
  <g transform="translate(690 54)">
    <g transform="translate(0 38)">
      <rect width="430" height="300" fill="#141216" stroke="#302B32"/>
      <g class="mono" font-size="11" fill="#A29EA3"><text x="24" y="38">AGENT CONTEXT</text><text x="24" y="90">MCP SAFETY</text><text x="24" y="142">REPRODUCIBILITY</text><text x="24" y="194">CI POSTURE</text><text x="24" y="246">GOVERNANCE</text></g>
      <g fill="#17283C"><rect x="190" y="24" width="210" height="17"/><rect x="190" y="76" width="210" height="17"/><rect x="190" y="128" width="210" height="17"/><rect x="190" y="180" width="210" height="17"/><rect x="190" y="232" width="210" height="17"/></g>
      <g fill="#58A6FF"><rect x="190" y="24" width="154" height="17"/><rect x="190" y="76" width="112" height="17"/><rect x="190" y="128" width="174" height="17"/><rect x="190" y="180" width="136" height="17"/><rect x="190" y="232" width="92" height="17"/></g>
      <line x1="24" y1="272" x2="406" y2="272" stroke="#302B32"/><circle cx="30" cy="287" r="4" fill="#45D98A"/><text x="44" y="291" class="mono" font-size="10" letter-spacing="1" fill="#6F6A72">LOCAL SCAN · ACTIONABLE FIXES</text>
    </g>
  </g>
</svg>